<svg width="277" height="47" viewBox="0 0 277 47" fill="none" xmlns="http://www.w3.org/2000/svg">
<rect width="277" height="47" rx="23.5" fill="#06FFFB"/>
<path d="M31.3303 16.5974L33.8215 14.2593M33.8215 14.2593L36.3391 16.625M33.8215 14.2593L33.857 20.5913" stroke="#00254F" stroke-width="2"/>
<path d="M36.4159 30.5035L33.9247 32.8416M33.9247 32.8416L31.4072 30.4759M33.9247 32.8416L33.8893 26.5095" stroke="#00254F" stroke-width="2"/>
<path d="M40.9782 20.9777L43.3444 23.4953M43.3444 23.4953L41.0067 25.9865M43.3444 23.4953L37.0123 23.4598" stroke="#00254F" stroke-width="2"/>
<path d="M27.1315 25.9089L24.7654 23.3913M24.7654 23.3913L27.103 20.9001M24.7654 23.3913L31.0974 23.4268" stroke="#00254F" stroke-width="2"/>
<path d="M63.7559 21.5625C63.4922 20.0332 62.2617 19.1543 60.7148 19.1543C58.623 19.1543 57.1641 20.7539 57.1641 23.6367C57.1641 26.5547 58.6406 28.1191 60.7148 28.1191C62.2266 28.1191 63.457 27.2754 63.7559 25.7812H66.0586C65.707 28.2246 63.7031 30.1758 60.6797 30.1758C57.3223 30.1758 54.8613 27.7324 54.8613 23.6367C54.8613 19.5234 57.3574 17.0977 60.6797 17.0977C63.4922 17.0977 65.6719 18.7324 66.0586 21.5625H63.7559ZM70.1719 17.2734V30H67.9219V17.2734H70.1719ZM72.3164 30V20.4551H74.5664V30H72.3164ZM73.459 19.1016C72.7559 19.1016 72.1582 18.5566 72.1582 17.8711C72.1582 17.2031 72.7559 16.6582 73.459 16.6582C74.1797 16.6582 74.7598 17.2031 74.7598 17.8711C74.7598 18.5566 74.1797 19.1016 73.459 19.1016ZM80.877 30.1934C78.0293 30.1934 76.3066 28.1543 76.3066 25.2715C76.3066 22.3535 78.082 20.332 80.877 20.332C83.1973 20.332 84.8145 21.6855 84.9727 23.7422H82.8281C82.6523 22.8281 81.9844 22.125 80.8945 22.125C79.5059 22.125 78.5742 23.3027 78.5742 25.2188C78.5742 27.1875 79.4883 28.3652 80.8945 28.3652C81.8965 28.3652 82.6348 27.7852 82.8281 26.748H84.9727C84.7969 28.7695 83.2676 30.1934 80.877 30.1934ZM86.6602 30V17.2734H88.9102V24.2871H89.0684L92.4961 20.4551H95.1152L91.4238 24.5684L95.3438 30H92.6719L89.7363 25.9043L88.9102 26.7832V30H86.6602ZM100.283 27.3105C100.283 25.166 102.059 24.5332 103.834 24.4277C104.493 24.3838 105.864 24.3047 106.277 24.2871V23.5312C106.277 22.582 105.662 22.0371 104.555 22.0371C103.553 22.0371 102.938 22.4941 102.762 23.1797H100.6C100.758 21.5625 102.217 20.332 104.607 20.332C106.418 20.332 108.51 21.0703 108.51 23.6191V30H106.365V28.6816H106.295C105.873 29.4902 104.977 30.1934 103.482 30.1934C101.654 30.1934 100.283 29.1914 100.283 27.3105ZM102.445 27.293C102.445 28.1191 103.113 28.541 104.062 28.541C105.416 28.541 106.295 27.6445 106.295 26.5723V25.7812L104.186 25.9219C103.113 26.0098 102.445 26.4492 102.445 27.293ZM112.869 24.4102V30H110.619V20.4551H112.764V22.0723H112.887C113.326 21 114.293 20.332 115.717 20.332C117.703 20.332 119.004 21.6328 118.986 23.918V30H116.754V24.2695C116.754 22.9863 116.068 22.2305 114.891 22.2305C113.695 22.2305 112.869 23.0215 112.869 24.4102ZM124.682 30.1758C122.432 30.1758 120.744 28.3828 120.744 25.2363C120.744 22.0547 122.484 20.332 124.699 20.332C126.387 20.332 127.09 21.334 127.424 22.0195H127.512V17.2734H129.744V30H127.547V28.4883H127.424C127.072 29.1914 126.334 30.1758 124.682 30.1758ZM125.297 28.3301C126.738 28.3301 127.564 27.082 127.564 25.2188C127.564 23.373 126.756 22.1602 125.297 22.1602C123.803 22.1602 123.029 23.4434 123.029 25.2188C123.029 27.0293 123.82 28.3301 125.297 28.3301ZM140.713 30H136.389V17.2734H140.783C144.58 17.2734 146.883 19.6641 146.883 23.6191C146.883 27.5918 144.58 30 140.713 30ZM138.674 28.0137H140.59C143.244 28.0137 144.598 26.5547 144.598 23.6191C144.598 20.7012 143.244 19.2598 140.66 19.2598H138.674V28.0137ZM148.799 30V20.4551H150.979V22.0371H151.084C151.418 20.9473 152.35 20.3145 153.439 20.3145C153.686 20.3145 154.037 20.332 154.248 20.3672V22.4414C154.055 22.3711 153.58 22.3008 153.211 22.3008C151.963 22.3008 151.049 23.1621 151.049 24.375V30H148.799ZM154.969 27.3105C154.969 25.166 156.744 24.5332 158.52 24.4277C159.179 24.3838 160.55 24.3047 160.963 24.2871V23.5312C160.963 22.582 160.348 22.0371 159.24 22.0371C158.238 22.0371 157.623 22.4941 157.447 23.1797H155.285C155.443 21.5625 156.902 20.332 159.293 20.332C161.104 20.332 163.195 21.0703 163.195 23.6191V30H161.051V28.6816H160.98C160.559 29.4902 159.662 30.1934 158.168 30.1934C156.34 30.1934 154.969 29.1914 154.969 27.3105ZM157.131 27.293C157.131 28.1191 157.799 28.541 158.748 28.541C160.102 28.541 160.98 27.6445 160.98 26.5723V25.7812L158.871 25.9219C157.799 26.0098 157.131 26.4492 157.131 27.293ZM169.471 33.7793C166.939 33.7793 165.34 32.6543 165.182 30.8613H167.414C167.572 31.6875 168.363 32.0918 169.506 32.0918C170.842 32.0918 171.721 31.5117 171.721 30.1055V28.2773H171.615C171.264 28.9805 170.508 29.8594 168.855 29.8594C166.658 29.8594 164.918 28.2598 164.918 25.1484C164.918 22.002 166.658 20.332 168.873 20.332C170.561 20.332 171.264 21.334 171.615 22.0195H171.721V20.4551H173.936V30.1582C173.936 32.6016 172.055 33.7793 169.471 33.7793ZM169.471 28.1016C170.912 28.1016 171.738 27.0117 171.738 25.1836C171.738 23.373 170.93 22.1602 169.471 22.1602C167.977 22.1602 167.203 23.4434 167.203 25.1836C167.203 26.9414 167.994 28.1016 169.471 28.1016ZM185.115 20.4551V22.1777H183.234V27.1348C183.234 28.0488 183.691 28.2422 184.254 28.2422C184.518 28.2422 184.957 28.2246 185.238 28.207V30.0352C184.975 30.0879 184.535 30.123 183.973 30.123C182.285 30.123 180.984 29.2969 181.002 27.5039V22.1777H179.631V20.4551H181.002V18.1699H183.234V20.4551H185.115ZM190.898 30.1934C188.121 30.1934 186.328 28.2246 186.328 25.2715C186.328 22.3008 188.121 20.332 190.898 20.332C193.693 20.332 195.469 22.3008 195.469 25.2715C195.469 28.2246 193.693 30.1934 190.898 30.1934ZM190.916 28.4004C192.445 28.4004 193.201 27.0117 193.201 25.2539C193.201 23.5137 192.445 22.1074 190.916 22.1074C189.352 22.1074 188.596 23.5137 188.596 25.2539C188.596 27.0117 189.352 28.4004 190.916 28.4004ZM201.586 30V17.2734H206.367C209.285 17.2734 210.85 18.9082 210.85 21.334C210.85 23.0654 210.059 24.3486 208.564 24.9551L211.307 30H208.758L206.262 25.3418H203.871V30H201.586ZM203.871 23.4258H206.016C207.738 23.4258 208.512 22.6875 208.512 21.334C208.512 19.9805 207.738 19.1895 206.016 19.1895H203.871V23.4258ZM216.738 30.1934C213.961 30.1934 212.168 28.2246 212.168 25.2715C212.168 22.3008 213.961 20.332 216.738 20.332C219.533 20.332 221.309 22.3008 221.309 25.2715C221.309 28.2246 219.533 30.1934 216.738 30.1934ZM216.756 28.4004C218.285 28.4004 219.041 27.0117 219.041 25.2539C219.041 23.5137 218.285 22.1074 216.756 22.1074C215.191 22.1074 214.436 23.5137 214.436 25.2539C214.436 27.0117 215.191 28.4004 216.756 28.4004ZM227.812 20.4551V22.1777H225.932V27.1348C225.932 28.0488 226.389 28.2422 226.951 28.2422C227.215 28.2422 227.654 28.2246 227.936 28.207V30.0352C227.672 30.0879 227.232 30.123 226.67 30.123C224.982 30.123 223.682 29.2969 223.699 27.5039V22.1777H222.328V20.4551H223.699V18.1699H225.932V20.4551H227.812ZM229.096 27.3105C229.096 25.166 230.871 24.5332 232.646 24.4277C233.306 24.3838 234.677 24.3047 235.09 24.2871V23.5312C235.09 22.582 234.475 22.0371 233.367 22.0371C232.365 22.0371 231.75 22.4941 231.574 23.1797H229.412C229.57 21.5625 231.029 20.332 233.42 20.332C235.23 20.332 237.322 21.0703 237.322 23.6191V30H235.178V28.6816H235.107C234.686 29.4902 233.789 30.1934 232.295 30.1934C230.467 30.1934 229.096 29.1914 229.096 27.3105ZM231.258 27.293C231.258 28.1191 231.926 28.541 232.875 28.541C234.229 28.541 235.107 27.6445 235.107 26.5723V25.7812L232.998 25.9219C231.926 26.0098 231.258 26.4492 231.258 27.293ZM244.195 20.4551V22.1777H242.314V27.1348C242.314 28.0488 242.771 28.2422 243.334 28.2422C243.598 28.2422 244.037 28.2246 244.318 28.207V30.0352C244.055 30.0879 243.615 30.123 243.053 30.123C241.365 30.123 240.064 29.2969 240.082 27.5039V22.1777H238.711V20.4551H240.082V18.1699H242.314V20.4551H244.195ZM250.049 30.1934C247.166 30.1934 245.408 28.2773 245.408 25.2891C245.408 22.3359 247.201 20.332 249.926 20.332C252.264 20.332 254.285 21.791 254.285 25.1484V25.8516H247.623C247.649 27.4775 248.607 28.4355 250.066 28.4355C251.051 28.4355 251.719 28.0137 252 27.4512H254.197C253.793 29.1035 252.264 30.1934 250.049 30.1934ZM247.641 24.3223H252.141C252.123 23.0215 251.262 22.0723 249.961 22.0723C248.607 22.0723 247.711 23.1006 247.641 24.3223Z" fill="#00254F"/>
</svg>
